
<svg width="92" height="69" viewBox="0 0 92 69" fill="none" xmlns="http://www.w3.org/2000/svg">
<path d="M34.5 69C53.5538 69 69 53.5538 69 34.5C69 15.4462 53.5538 0 34.5 0C15.4462 0 0 15.4462 0 34.5C0 53.5538 15.4462 69 34.5 69Z" fill="#E8EBFF" fill-opacity="0.26"/>
<path d="M15.3712 37.743C15.2687 40.0101 13.4056 41.7525 11.2109 41.632C9.01624 41.5114 7.31596 39.5759 7.41846 37.3089C7.52096 35.0419 9.38403 33.2994 11.5787 33.42C13.7734 33.5405 15.4737 35.476 15.3712 37.743Z" fill="#6E62E5"/>
<path d="M9.05845 37.3029C9.14286 35.4036 10.4693 33.8782 12.1877 33.5044C11.9887 33.4622 11.7897 33.426 11.5787 33.42C9.38403 33.2994 7.52096 35.0419 7.41846 37.3089C7.31596 39.5759 9.01624 41.5114 11.2109 41.632C11.5667 41.65 11.9103 41.6199 12.242 41.5475C10.3487 41.1315 8.96801 39.3589 9.05845 37.3029Z" fill="#2738A1"/>
<path d="M63.7279 32.9975C63.5832 36.2835 60.882 38.8038 57.6985 38.6289C54.515 38.4541 52.0551 35.6504 52.2058 32.3705C52.3505 29.0845 55.0517 26.5642 58.2352 26.739C61.4187 26.9139 63.8786 29.7176 63.7279 32.9975Z" fill="#6E62E5"/>
<path d="M58.2347 26.739C57.6317 26.7088 57.0469 26.7691 56.4922 26.9199C59.1029 27.6072 60.9841 30.1215 60.8575 33.0035C60.7369 35.6624 58.9401 37.8209 56.5706 38.454C56.9323 38.5505 57.3122 38.6108 57.7041 38.6349C60.8876 38.8098 63.5827 36.2895 63.7335 33.0035C63.8782 29.7175 61.4182 26.9138 58.2347 26.739Z" fill="#4035AA"/>
<path d="M53.3443 49.0602L49.9498 16.375C35.0754 28.2408 16.5532 30.8274 16.5532 30.8274L16.5712 31.0022C13.7555 31.2555 11.4885 33.6129 11.3498 36.6095C11.2051 39.8955 13.6651 42.6932 16.8426 42.868C17.2104 42.8861 17.5721 42.868 17.9278 42.8198C42.9919 44.0015 53.3443 49.0602 53.3443 49.0602Z" fill="#BFC8FF"/>
<path d="M17.3895 35.9341L17.3715 35.7593C17.3715 35.7593 35.6585 33.2088 50.4787 21.536L49.9421 16.3809C35.0676 28.2467 16.5454 30.8333 16.5454 30.8333L16.5635 31.0081C13.7478 31.2614 11.4808 33.6188 11.3421 36.6154C11.2818 37.966 11.6677 39.2322 12.3611 40.2752C12.9881 37.8997 14.9838 36.1512 17.3895 35.9341Z" fill="#E8EBFF"/>
<path d="M52.657 42.4036C48.4605 40.9022 37.9755 37.9057 19.4111 37.0314C19.0553 37.0796 18.6996 37.0977 18.3258 37.0796C15.7754 36.941 13.6892 35.108 13.038 32.6963C12.0552 33.7032 11.4161 35.0719 11.3498 36.6154C11.2051 39.9014 13.6651 42.699 16.8426 42.8738C17.2104 42.8919 17.5721 42.8738 17.9278 42.8256C42.9919 44.0013 53.3443 49.066 53.3443 49.066L52.657 42.4036Z" fill="#BFC8FF"/>
<path d="M56.1702 50.4223C54.7051 50.573 53.3907 49.5118 53.24 48.0407L50.0143 16.9895C49.8635 15.5243 50.9247 14.2099 52.3959 14.0592C53.861 13.9084 55.1754 14.9696 55.3261 16.4408L58.5518 47.492C58.7026 48.9571 57.6354 50.2655 56.1702 50.4223Z" fill="#6E62E5"/>
<path d="M58.5606 47.5889L55.3168 16.3448C55.1721 14.9459 53.924 13.927 52.5312 14.0536C53.1523 14.4636 53.5924 15.1389 53.6768 15.9348L56.9206 47.1789C57.0653 48.5898 56.0403 49.8559 54.6295 50.0006L54.4305 50.0187C54.4184 50.0187 54.4064 50.0187 54.3943 50.0187C54.8706 50.3323 55.4555 50.489 56.0705 50.4287L56.2694 50.4106C57.6863 50.2659 58.7113 48.9998 58.5606 47.5889Z" fill="#4035AA"/>
<path d="M25.855 53.7931C25.7284 52.5993 25.1074 51.5863 24.2151 50.9231L24.1909 50.706C25.3365 49.874 26.0239 48.4691 25.8671 46.9618C25.7103 45.4484 24.7517 44.2185 23.4554 43.6396L22.973 39.0031L15.6172 39.7688L18.035 63.0542L19.6267 62.8914C22.6655 62.5778 24.9024 59.9671 24.812 56.9645C25.5717 56.1264 25.9817 54.9929 25.855 53.7931Z" fill="#6E62E5"/>
<path d="M24.2204 50.9231L24.1962 50.706C25.3418 49.874 26.0292 48.4691 25.8724 46.9618C25.7156 45.4484 24.757 44.2185 23.4607 43.6396L22.9783 39.0031L21.1152 39.196L21.4046 41.9936C22.701 42.5724 23.6596 43.8024 23.8164 45.3158C23.9731 46.8292 23.2858 48.228 22.1402 49.06L22.1643 49.2771C23.0567 49.9403 23.6777 50.9532 23.8043 52.1471C23.9309 53.3469 23.5209 54.4804 22.7733 55.3125C22.8577 58.2247 20.7535 60.757 17.8594 61.1971L18.0523 63.0481L19.6441 62.8853C22.6829 62.5718 24.9198 59.9611 24.8293 56.9585C25.577 56.1264 25.987 54.9929 25.8603 53.7931C25.7337 52.6053 25.1127 51.5863 24.2204 50.9231Z" fill="#4035AA"/>
<path d="M24.1251 45.9062L23.281 45.9967C19.0002 46.4429 15.1715 43.3317 14.7253 39.0509L14.3395 35.3488C13.8933 31.068 17.0044 27.2393 21.2853 26.7932L22.1294 26.7027C26.4102 26.2566 30.2389 29.3677 30.6851 33.6486L31.0709 37.3506C31.5111 41.6314 28.4059 45.4601 24.1251 45.9062Z" fill="#6E62E5"/>
<path d="M23.033 26.6068L20.3801 26.8841C16.5997 27.276 13.8563 30.6585 14.2482 34.4389L14.3809 35.7413C18.7401 35.5543 26.8616 33.2632 30.4973 32.1779C29.8462 28.6929 26.6265 26.239 23.033 26.6068Z" fill="#545EA1"/>
<path d="M22.3739 46.0883L25.0268 45.811C28.8072 45.4191 31.5506 42.0366 31.1587 38.2562L31.1225 37.9065C28.0596 37.4664 19.8778 36.363 14.4453 36.3811L14.8191 39.9565C15.211 43.7309 18.5935 46.4803 22.3739 46.0883Z" fill="#4035AA"/>
<path d="M71.8789 24.2019L87.5854 13.8193" stroke="#6E62E5" stroke-width="2.6492" stroke-miterlimit="10" stroke-linecap="round" stroke-linejoin="round"/>
<path d="M72.707 30.3217L88.1181 28.1934" stroke="#6E62E5" stroke-width="2.6492" stroke-miterlimit="10" stroke-linecap="round" stroke-linejoin="round"/>
<path d="M72.707 35.6455L90.2464 38.8411" stroke="#6E62E5" stroke-width="2.6492" stroke-miterlimit="10" stroke-linecap="round" stroke-linejoin="round"/>
</svg>
