<svg width="21" height="20" viewBox="0 0 21 20" fill="none" xmlns="http://www.w3.org/2000/svg">
<path d="M17.9036 15.1051V10.8335C17.9036 6.69781 14.5395 3.33372 10.4038 3.33372C6.26806 3.33372 2.90397 6.69781 2.90397 10.8335V15.1051C1.46734 15.4759 0.404031 16.7826 0.404031 18.3334C0.404031 19.2525 1.15151 20 2.07066 20H18.7369C19.6561 20 20.4036 19.2525 20.4036 18.3334C20.4036 16.7826 19.3403 15.4759 17.9036 15.1051ZM10.4038 5.00035C13.6196 5.00035 16.237 7.61779 16.237 10.8335V15.0001H4.5706V10.8335C4.5706 7.61779 7.18804 5.00035 10.4038 5.00035ZM2.07066 18.3334C2.07066 17.4142 2.81814 16.6667 3.73729 16.6667H17.0703C17.9895 16.6667 18.7369 17.4142 18.7369 18.3334H2.07066ZM17.7345 5.17618C17.407 4.85202 17.4045 4.32536 17.7278 3.99787L18.9778 2.73373C19.3011 2.40624 19.8286 2.40374 20.1561 2.72707C20.4836 3.05122 20.4861 3.57788 20.1627 3.90537L18.9128 5.16951C18.7503 5.33451 18.5353 5.417 18.3203 5.417C18.1086 5.417 17.897 5.33617 17.7345 5.17618ZM14.247 1.70042L14.8945 0.450451C15.1062 0.040461 15.6103 -0.117869 16.0178 0.0937931C16.4262 0.305455 16.5862 0.807943 16.3745 1.2171L15.727 2.46707C15.5787 2.75373 15.2879 2.91706 14.9862 2.91706C14.857 2.91706 14.7262 2.88706 14.6037 2.82373C14.1954 2.61207 14.0354 2.10958 14.247 1.70042ZM0.644859 3.9062C0.3207 3.57871 0.324033 3.05206 0.651526 2.7279C0.978185 2.40374 1.50734 2.40707 1.82983 2.73457L3.0798 3.9987C3.40396 4.32619 3.40063 4.85285 3.07314 5.17701C2.91147 5.337 2.69898 5.41784 2.48732 5.41784C2.27232 5.41784 2.05733 5.33534 1.89483 5.17034L0.644859 3.9062ZM4.43311 1.2171C4.22144 0.808777 4.38144 0.305455 4.78976 0.0937931C5.19559 -0.117869 5.70058 0.040461 5.91307 0.450451L6.56056 1.70042C6.77222 2.10875 6.61222 2.61207 6.2039 2.82373C6.08223 2.88706 5.95057 2.91706 5.82141 2.91706C5.52058 2.91706 5.22892 2.75373 5.08059 2.46707L4.43311 1.2171ZM7.07054 10.8335C7.07054 8.99525 8.56551 7.50029 10.4038 7.50029C10.8646 7.50029 11.2371 7.87278 11.2371 8.3336C11.2371 8.79443 10.8646 9.16692 10.4038 9.16692C9.48466 9.16692 8.73717 9.9144 8.73717 10.8335C8.73717 11.2944 8.36468 11.6669 7.90386 11.6669C7.44304 11.6669 7.07054 11.2944 7.07054 10.8335Z" fill="white"/>
</svg>
