<svg width="93" height="30" viewBox="0 0 93 30" fill="none" xmlns="http://www.w3.org/2000/svg">
<path d="M3.84471 24.2714C2.48781 24.2714 1.69833 23.4696 1.69833 22.0263V8.07483C1.69833 6.68092 2.48781 5.92845 3.89406 5.92845C4.75754 5.92845 5.37432 6.29852 6.05277 7.18668L12.862 16.5493H12.9607V8.17352C12.9607 6.73026 13.7625 5.92845 15.107 5.92845C16.464 5.92845 17.2534 6.73026 17.2534 8.17352V22.1497C17.2534 23.5189 16.4886 24.2714 15.1194 24.2714C14.2066 24.2714 13.6021 23.9137 12.9483 23.0132L6.08978 13.5518H5.9911V22.0263C5.9911 23.4696 5.18929 24.2714 3.84471 24.2714ZM27.7524 24.3207C23.4474 24.3207 20.8939 21.7179 20.8939 17.3512C20.8939 12.9967 23.4844 10.2459 27.5798 10.2459C31.5765 10.2459 34.2039 12.8857 34.2039 16.5123C34.2039 17.6225 33.5748 18.2393 32.4399 18.2393H25.1373V18.486C25.1373 20.1143 26.2105 21.2245 27.7895 21.2245C28.986 21.2245 29.8125 20.8421 30.787 19.8553C31.2434 19.4235 31.6011 19.2755 32.1439 19.2755C33.0321 19.2755 33.7845 19.8429 33.7845 20.8051C33.7845 21.1382 33.6858 21.4712 33.4885 21.7919C32.6003 23.3709 30.4293 24.3207 27.7524 24.3207ZM25.199 15.7475H30.0839C30.0099 14.2919 29.0353 13.3544 27.6661 13.3544C26.3092 13.3544 25.31 14.3413 25.199 15.7475Z" fill="#1F3253"/>
<path d="M55.1693 4.31664C54.1872 4.24618 53.2327 4.65613 52.6093 5.41838L40.1785 20.5758C38.6177 22.4782 39.8539 25.3478 42.3072 25.5229C43.2894 25.5934 44.2438 25.1834 44.8672 24.4212L57.2981 9.26377C58.8589 7.36136 57.6226 4.49172 55.1693 4.31664Z" fill="#6E62E5"/>
<path d="M57.6242 8.74701C58.4172 7.28825 57.8775 5.46285 56.4187 4.66988C54.9599 3.87691 53.1345 4.41664 52.3416 5.8754C51.5486 7.33416 52.0883 9.15956 53.5471 9.95253C55.0059 10.7455 56.8312 10.2058 57.6242 8.74701Z" fill="#1F3253"/>
<path d="M44.7562 24.4996C45.8469 23.2479 45.7164 21.349 44.4646 20.2584C43.2129 19.1677 41.314 19.2982 40.2234 20.55C39.1327 21.8017 39.2633 23.7006 40.515 24.7912C41.7667 25.8819 43.6656 25.7513 44.7562 24.4996Z" fill="#1F3253"/>
<path d="M55.1887 25.5101C54.2065 25.5827 53.2521 25.1728 52.6265 24.4127L40.1679 9.27875C38.605 7.3806 39.8349 4.50669 42.286 4.32734C43.2682 4.25474 44.2226 4.6647 44.8482 5.42481L57.3068 20.5587C58.8718 22.4569 57.642 25.3308 55.1887 25.5101Z" fill="#6E62E5"/>
<path d="M68.1267 24.259C65.2402 24.259 63.2049 22.3717 63.2049 19.2015V12.5526C63.2049 11.023 64.1177 10.2829 65.4006 10.2829C66.6711 10.2829 67.584 11.023 67.584 12.5526V18.2516C67.584 19.8429 68.4105 20.6941 69.7797 20.6941C71.1366 20.6941 72.0001 19.6826 72.0001 18.1653V12.5526C72.0001 11.023 72.9006 10.2829 74.1835 10.2829C75.4664 10.2829 76.3669 11.023 76.3669 12.5526V22.0633C76.3669 23.5683 75.5034 24.2837 74.2452 24.2837C72.9869 24.2837 72.1234 23.5683 72.1234 22.0757V21.4589H72.0371C71.4327 23.2229 70.1498 24.259 68.1267 24.259ZM86.0147 24.3207C82.5855 24.3207 80.4391 23.2105 79.81 21.6686C79.7113 21.4095 79.6496 21.1505 79.6496 20.9285C79.6496 19.9663 80.3651 19.2878 81.3519 19.2878C82.0427 19.2878 82.6225 19.5715 83.2516 20.1883C83.9917 21.0025 84.8305 21.3725 86.0517 21.3725C87.1866 21.3725 87.9144 20.9408 87.9144 20.213C87.9144 19.6209 87.4827 19.3002 86.2614 19.0535L83.9177 18.5847C81.2656 18.0666 79.8963 16.6727 79.8963 14.6373C79.8963 11.9359 82.2031 10.2459 85.916 10.2459C88.9876 10.2459 91.06 11.5288 91.541 13.009C91.6151 13.2188 91.6521 13.4285 91.6521 13.6382C91.6521 14.477 91.1216 15.0938 89.9868 15.0938C89.4933 15.0938 88.8642 14.8964 88.4942 14.551C87.8281 13.8849 87.1619 13.1941 85.879 13.1941C84.8182 13.1941 84.1027 13.6628 84.1027 14.3906C84.1027 14.9704 84.5098 15.3405 85.7927 15.5995L88.1241 16.0559C91.0106 16.6234 92.2565 17.7212 92.2565 19.7319C92.2565 22.5444 89.7524 24.3207 86.0147 24.3207Z" fill="#1F3253"/>
</svg>
